<svg width="23.999999999999996" height="23.999999999999996" xmlns="http://www.w3.org/2000/svg">

 <g>
  <title>background</title>
  <rect fill="none" id="canvas_background" height="402" width="582" y="-1" x="-1"/>
 </g>
 <g>
  <title>Layer 1</title>
  <g id="svg_1" fill="none">
   <path id="svg_2" d="m0,0l24,0l0,24l-24,0l0,-24z"/>
   <path id="svg_3" fill="#4a76a8" d="m18.201136,7.506624c2.816411,1.010975 4.798864,3.425535 4.798864,6.243376c0,1.837301 -0.842811,3.503152 -2.211276,4.718139c0.145914,0.703266 0.471808,1.580748 0.97768,2.632447l0.146912,0.300201l0.028638,0.075789c0.04781,0.179794 -0.035487,0.37439 -0.208536,0.460503c-0.083927,0.041764 -0.179857,0.052723 -0.271041,0.030964c-1.793957,-0.428102 -3.122967,-1.011503 -3.986266,-1.750643c-0.705079,0.183839 -1.452353,0.2826 -2.226111,0.2826c-2.785762,0 -5.22823,-1.280159 -6.594213,-3.201892l0.094213,0.001892c5.223283,0 9.55,-3.768431 9.55,-8.55c0,-0.422761 -0.033823,-0.837602 -0.098864,-1.243376zm-9.451136,-5.506624c4.280207,0 7.75,3.022078 7.75,6.75c0,3.727922 -3.469793,6.75 -7.75,6.75c-0.773758,0 -1.521032,-0.098761 -2.226111,-0.2826c-0.863299,0.73914 -2.192309,1.322541 -3.986266,1.750643c-0.091184,0.021759 -0.187114,0.0108 -0.271041,-0.030964c-0.173049,-0.086113 -0.256346,-0.280709 -0.208536,-0.460503l0.028638,-0.07579l0.146912,-0.3002c0.505872,-1.051699 0.831765,-1.929181 0.97768,-2.632447c-1.368465,-1.214987 -2.211276,-2.880838 -2.211276,-4.718139c0,-3.727922 3.469793,-6.75 7.75,-6.75z"/>
  </g>
 </g>
</svg>