<svg width="24" height="24" xmlns="http://www.w3.org/2000/svg">
 <!-- Generator: Sketch 50.2 (55047) - http://www.bohemiancoding.com/sketch -->
 <title>music_24</title>
 <desc>Created with Sketch.</desc>

 <g>
  <title>background</title>
  <rect fill="none" id="canvas_background" height="402" width="582" y="-1" x="-1"/>
 </g>
 <g>
  <title>Layer 1</title>
  <g fill-rule="evenodd" fill="none" id="Page-2">
   <g id="music_24">
    <polygon points="0 0 24 0 24 24 0 24" id="Bounds"/>
    <path fill="#4a76a8" id="Mask" d="m19,10.033016l0,4.452485c0,3.471462 -1.235909,4.219539 -3.280802,4.494495c-1.062349,0.142843 -2.719198,-0.414244 -2.719198,-2.432355c0,-0.985805 0.821046,-1.965138 1.845857,-2.166586c0.950423,-0.186826 -0.308249,0.057448 1.841891,-0.352008c0.346365,-0.065959 0.317142,-0.31264 0.317142,-0.579919c0,-0.216916 -0.001107,-2.199151 -0.001799,-3.416112l-0.003091,0l0.00489,-2.576095c0,-0.236556 -0.073072,-0.348024 -0.344927,-0.280031l-7.295458,1.32946c-0.304643,0.076194 -0.364505,0.202709 -0.364505,0.49365l0,2.501782l0,4.983719c0,3.471462 -1.235909,4.219539 -3.280802,4.494495c-1.062349,0.142843 -2.719198,-0.414244 -2.719198,-2.432355c0,-0.985805 0.821046,-1.965138 1.845857,-2.166586c0.950423,-0.186826 -0.308249,0.057448 1.841891,-0.352008c0.346365,-0.065959 0.317142,-0.31264 0.317142,-0.579919c0,-0.315423 -0.002341,-4.363604 -0.002341,-4.363604l0.001652,-0.00007l-0.004201,-2.535805c0,0 -0.004089,-1.573682 0,-2.360514c0.00489,-0.941075 0.510284,-1.286929 2,-1.593333l8,-1.477604c0,0 2,-0.625268 2,1.000429l0,5.914389z"/>
   </g>
  </g>
 </g>
</svg>