<svg width="24.000000000000004" height="24.000000000000004" xmlns="http://www.w3.org/2000/svg">
 <!-- Generator: Sketch 50.2 (55047) - http://www.bohemiancoding.com/sketch -->
 <title>followers_24</title>
 <desc>Created with Sketch.</desc>

 <g>
  <title>background</title>
  <rect fill="none" id="canvas_background" height="402" width="582" y="-1" x="-1"/>
 </g>
 <g>
  <title>Layer 1</title>
  <g fill-rule="evenodd" fill="none" id="Page-2">
   <g id="followers_24">
    <polygon points="0 0 24 0 24 24 0 24" id="Shape"/>
    <path fill="#4a76a8" id="Mask" d="m4.83814,5.029199c0.271293,0.012949 0.494409,0.028152 0.669349,0.045609c7.036375,0.702166 12.640716,6.266935 13.403884,13.285169c0.022345,0.205488 0.041578,0.472407 0.057697,0.800757l0.000039,-0.000002c0.021666,0.441318 -0.31853,0.81664 -0.759847,0.838306c-0.013067,0.000641 -0.026147,0.000962 -0.039229,0.000962l-1.402105,0.00001c-0.424812,0 -0.775547,-0.332026 -0.79881,-0.756201c-0.015319,-0.279318 -0.033494,-0.506959 -0.054524,-0.682922c-0.666245,-5.574488 -5.154082,-9.975031 -10.768775,-10.506893c-0.105996,-0.01004 -0.235191,-0.019047 -0.387585,-0.027019l-0.000002,0.000028c-0.425019,-0.022235 -0.758232,-0.373335 -0.758232,-0.798936l0.00001,-1.399787c0,-0.441823 0.358168,-0.799991 0.79999,-0.799991c0.012719,0 0.025436,0.000304 0.03814,0.00091zm0.01914,5.030718c0.37938,0.027235 0.588901,0.043806 0.628561,0.049714c4.23379,0.630653 7.601087,3.915134 8.355636,8.107189c0.041714,0.23175 0.077439,0.538803 0.107175,0.921159l-0.000008,0.000001c0.034257,0.440493 -0.295061,0.825354 -0.735554,0.859612c-0.020638,0.001605 -0.04133,0.002408 -0.062029,0.002408l-1.254313,-0.00005c-0.415393,0 -0.761669,-0.317941 -0.797044,-0.731825c-0.013725,-0.160574 -0.029299,-0.295362 -0.046723,-0.404367c-0.484868,-3.033349 -2.879535,-5.429271 -5.912256,-5.916021c-0.007067,-0.001134 -0.14165,-0.012058 -0.403749,-0.032772l0,0.000005c-0.41609,-0.032884 -0.736976,-0.380131 -0.736976,-0.797519l0.000039,-1.259626c0,-0.441806 0.358155,-0.799961 0.799961,-0.799961c0.019112,0 0.038217,0.000685 0.05728,0.002053zm3.261686,9.940083l-3.318966,0c-0.441828,0 -0.8,-0.358172 -0.8,-0.8l0.000044,-3.32382c0,-0.441803 0.358153,-0.799955 0.799956,-0.799955c0.047137,0 0.094182,0.004166 0.140585,0.01245c0.018532,0.003308 0.036322,0.006681 0.05337,0.01012c1.898759,0.382976 3.407842,1.841696 3.863978,3.712886c0.018384,0.075416 0.035485,0.163374 0.051304,0.263875l0.000058,-0.000009c0.068701,0.436487 -0.229448,0.846022 -0.665935,0.914723c-0.041148,0.006477 -0.08274,0.00973 -0.124394,0.00973z"/>
   </g>
  </g>
 </g>
</svg>