<svg width="24" height="24" xmlns="http://www.w3.org/2000/svg">
 <!-- Generator: Sketch 50.2 (55047) - http://www.bohemiancoding.com/sketch -->
 <title>settings_24</title>
 <desc>Created with Sketch.</desc>

 <g>
  <title>background</title>
  <rect fill="none" id="canvas_background" height="402" width="582" y="-1" x="-1"/>
 </g>
 <g>
  <title>Layer 1</title>
  <g fill-rule="evenodd" fill="none" id="Page-2">
   <g id="settings_24">
    <rect height="24" width="24" y="0" x="0" id="Bounds"/>
    <path fill="#4a76a8" id="Mask" d="m9.12681,5.052209c1.255839,-0.719397 1.473233,-1.469136 1.62319,-2.218876c0.166677,-0.833333 0.416667,-0.833333 0.833333,-0.833333c0.416667,0 0.416667,0 0.833334,0c0.416666,0 0.583343,0 0.833333,0.833333c0.225257,0.750889 0.382871,1.501778 1.631178,2.222184c1.396703,0.379323 2.080569,0.002898 2.716751,-0.421213c0.707114,-0.471397 0.883883,-0.294627 1.178511,0c0.294628,0.294628 0.294628,0.294628 0.589256,0.589256c0.294628,0.294628 0.412486,0.412486 0,1.178511c-0.371678,0.69024 -0.791187,1.332649 -0.417904,2.724739c0.719396,1.255839 1.469135,1.473233 2.218875,1.62319c0.833333,0.166677 0.833333,0.416667 0.833333,0.833333c0,0.416667 0,0.416667 0,0.833334c0,0.416666 0,0.583343 -0.833333,0.833333c-0.750889,0.225257 -1.501778,0.382871 -2.222184,1.631178c-0.379323,1.396703 -0.002898,2.080569 0.421213,2.716751c0.471397,0.707114 0.294628,0.883883 0,1.178511c-0.294628,0.294628 -0.294628,0.294628 -0.589256,0.589256c-0.294628,0.294628 -0.412486,0.412486 -1.178511,0c-0.69024,-0.371678 -1.332649,-0.791187 -2.724739,-0.417904c-1.255839,0.719396 -1.473233,1.469135 -1.62319,2.218875c-0.166677,0.833333 -0.416667,0.833333 -0.833333,0.833333c-0.416667,0 -0.416667,0 -0.833334,0c-0.416666,0 -0.583343,0 -0.833333,-0.833333c-0.225257,-0.750889 -0.382871,-1.501778 -1.631178,-2.222184c-1.396703,-0.379323 -2.080569,-0.002898 -2.716751,0.421213c-0.707114,0.471397 -0.883883,0.294628 -1.178511,0c-0.294628,-0.294628 -0.294628,-0.294628 -0.589256,-0.589256c-0.294627,-0.294628 -0.412486,-0.412486 0,-1.178511c0.371678,-0.69024 0.791187,-1.332649 0.417905,-2.724739c-0.719397,-1.255839 -1.469136,-1.473233 -2.218876,-1.62319c-0.833333,-0.166677 -0.833333,-0.416667 -0.833333,-0.833333c0,-0.416667 0,-0.416667 0,-0.833334c0,-0.416666 0,-0.583343 0.833333,-0.833333c0.750889,-0.225257 1.501778,-0.382871 2.222184,-1.631178c0.379323,-1.396703 0.002898,-2.080569 -0.421213,-2.716751c-0.471397,-0.707114 -0.294627,-0.883883 0,-1.178511c0.294628,-0.294628 0.294628,-0.294628 0.589256,-0.589256c0.294628,-0.294627 0.412486,-0.412486 1.178511,0c0.69024,0.371678 1.332649,0.791187 2.724739,0.417905zm2.87319,11.697791c2.623353,0 4.75,-2.126647 4.75,-4.75c0,-2.623353 -2.126647,-4.75 -4.75,-4.75c-2.623353,0 -4.75,2.126647 -4.75,4.75c0,2.623353 2.126647,4.75 4.75,4.75z"/>
   </g>
  </g>
 </g>
</svg>