<svg width="24" height="24" xmlns="http://www.w3.org/2000/svg">
 <!-- Generator: Sketch 50.2 (55047) - http://www.bohemiancoding.com/sketch -->
 <title>users_24</title>
 <desc>Created with Sketch.</desc>

 <g>
  <title>background</title>
  <rect fill="none" id="canvas_background" height="402" width="582" y="-1" x="-1"/>
 </g>
 <g>
  <title>Layer 1</title>
  <g fill-rule="evenodd" fill="none" id="Page-2">
   <g id="users_24">
    <rect height="24" width="24" id="Mask"/>
    <path fill="#4a76a8" id="Mask" d="m14.828695,12.72435c0.783106,-0.161038 1.547811,-0.22435 2.171305,-0.22435c2.294118,0 6.5,0.857143 6.5,4.285714c0,1.5 -0.382353,1.714286 -1.147059,1.714286l-6.089934,0c0.157843,-0.48891 0.236993,-1.062268 0.236993,-1.714286c0,-1.722556 -0.63118,-3.066377 -1.671305,-4.061364zm-13.328695,4.061364c0,-3.428571 4.205882,-4.285714 6.5,-4.285714c2.294118,0 6.5,0.857143 6.5,4.285714c0,1.5 -0.382353,1.714286 -1.147059,1.714286l-10.705882,0c-0.764706,0 -1.147059,-0.214286 -1.147059,-1.714286zm9.5,-8.785714c0,1.6575 -1.3425,3 -3,3c-1.6575,0 -3,-1.3425 -3,-3c0,-1.6575 1.3425,-3 3,-3c1.6575,0 3,1.3425 3,3zm9,0c0,1.6575 -1.3425,3 -3,3c-1.6575,0 -3,-1.3425 -3,-3c0,-1.6575 1.3425,-3 3,-3c1.6575,0 3,1.3425 3,3z"/>
   </g>
  </g>
 </g>
</svg>