<svg width="28" height="28" xmlns="http://www.w3.org/2000/svg">
 <!-- Generator: Sketch 63.1 (92452) - https://sketch.com -->

 <title>mute_outline_28</title>
 <desc>Created with Sketch.</desc>
 <g>
  <title>background</title>
  <rect fill="none" id="canvas_background" height="402" width="582" y="-1" x="-1"/>
 </g>
 <g>
  <title>Layer 1</title>
  <g fill-rule="evenodd" fill="none" id="Page-1">
   <g id="mute_outline_28">
    <rect id="svg_1" height="28" width="28" y="0" x="0"/>
    <path fill-rule="nonzero" fill="#4a76a8" id="↳-Icon-Color" d="m7.6129,4.2097l0.09421,0.08319l16,16c0.39052,0.39053 0.39052,1.02369 0,1.41422c-0.36049,0.36048 -0.92772,0.38821 -1.32001,0.08319l-0.09421,-0.08319l-4.29289,-4.29211l0,4.585c0,1.10457 -0.89543,2 -2,2c-0.83005,0 -1.62893,-0.30226 -2.2495,-0.84582l-0.16471,-0.15418l-5,-5l-2.12746,0c-1.30339,0 -2.36987,-1.01434 -2.4531,-2.2967l-0.00523,-0.16163l0,-3.08334c0,-1.30339 1.01434,-2.36987 2.2967,-2.4531l0.16163,-0.00523l2.12746,0l0.99921,-1l-3.29211,-3.29289c-0.36048,-0.36049 -0.38821,-0.92772 -0.08319,-1.32001l0.08319,-0.09421c0.36049,-0.36048 0.92772,-0.38821 1.32001,-0.08319zm3.3871,6.2053l-1.29289,1.29211c-0.15628,0.15628 -0.35896,0.25549 -0.57567,0.28422l-0.13144,0.00867l-2.54167,0c-0.225,0 -0.41214,0.16214 -0.45095,0.37595l-0.00738,0.08238l0,3.08334c0,0.225 0.16214,0.41214 0.37595,0.45095l0.08238,0.00738l2.54167,0c0.22101,0 0.43448,0.07316 0.60803,0.20608l0.09908,0.08681l5.29289,5.2929c0.23206,0.23206 0.53648,0.37514 0.86022,0.40729l0.13978,0.00692l0,-6.585l-5,-5zm5,-6.415c1.05436,0 1.91817,0.81588 1.99451,1.85074l0.00549,0.14926l0,4l0,0c0,0.55228 -0.44772,1 -1,1c-0.55228,0 -1,-0.44772 -1,-1l0,-4c-0.32819,0 -0.64462,0.11408 -0.89627,0.32027l-0.10373,0.09394l-0.792,0.79379c-0.17825,0.14979 -0.40736,0.242 -0.658,0.242c-0.55228,0 -1,-0.44772 -1,-1c0,-0.25064 0.09221,-0.47975 0.24456,-0.65525l-0.00156,-0.00175l0.03307,-0.03288c0.01077,-0.0113 0.0218,-0.02234 0.03308,-0.03312l0.72664,-0.727c0.64029,-0.64029 1.5087,-1 2.41421,-1z"/>
   </g>
  </g>
 </g>
</svg>