<svg width="48.00000000000001" height="48.00000000000001" xmlns="http://www.w3.org/2000/svg">
 <!-- Generator: Sketch 50.2 (55047) - http://www.bohemiancoding.com/sketch -->
 <title>skip_next_48</title>
 <desc>Created with Sketch.</desc>

 <g>
  <title>background</title>
  <rect fill="none" id="canvas_background" height="402" width="582" y="-1" x="-1"/>
 </g>
 <g>
  <title>Layer 1</title>
  <g fill-rule="evenodd" fill="none" id="Page-2">
   <g id="skip_next_48">
    <rect height="48" width="48" id="Rectangle-738"/>
    <path fill="#4a76a8" id="Mask" d="m23.953492,23.161994l-12.154846,-6.996512c-0.182101,-0.10482 -0.388532,-0.159989 -0.598646,-0.159989c-0.662742,0 -1.2,0.537259 -1.2,1.2l0,14.587734c0,0.210114 0.055169,0.416545 0.159989,0.598646c0.330623,0.574382 1.064275,0.771988 1.638657,0.441365l12.154846,-6.996512l0,5.957568c0,0.210114 0.055169,0.416546 0.159989,0.598646c0.330623,0.574383 1.064274,0.771989 1.638657,0.441365l12.671432,-7.293866c0.183479,-0.105613 0.335752,-0.257886 0.441365,-0.441365c0.330623,-0.574383 0.133017,-1.308034 -0.441365,-1.638657l-12.671432,-7.293867c-0.182101,-0.10482 -0.388532,-0.159989 -0.598646,-0.159989c-0.662742,0 -1.2,0.537258 -1.2,1.2l0,5.955433z"/>
   </g>
  </g>
 </g>
</svg>