<svg width="48" height="48" xmlns="http://www.w3.org/2000/svg">
 <!-- Generator: Sketch 50.2 (55047) - http://www.bohemiancoding.com/sketch -->
 <title>pause_48</title>
 <desc>Created with Sketch.</desc>

 <g>
  <title>background</title>
  <rect fill="none" id="canvas_background" height="402" width="582" y="-1" x="-1"/>
 </g>
 <g>
  <title>Layer 1</title>
  <g fill-rule="evenodd" fill="none" id="Page-2">
   <g id="pause_48">
    <rect height="48" width="48" id="Rectangle-737"/>
    <path fill="#4a76a8" id="Mask" d="m13.42406,8l5.15188,0c1.338771,0 2.42406,1.085289 2.42406,2.42406l0,27.15188c0,1.338771 -1.085289,2.42406 -2.42406,2.42406l-5.15188,0c-1.338771,0 -2.42406,-1.085289 -2.42406,-2.42406l0,-27.15188c0,-1.338771 1.085289,-2.42406 2.42406,-2.42406zm16,0l5.15188,0c1.338771,0 2.42406,1.085289 2.42406,2.42406l0,27.15188c0,1.338771 -1.085289,2.42406 -2.42406,2.42406l-5.15188,0c-1.338771,0 -2.42406,-1.085289 -2.42406,-2.42406l0,-27.15188c0,-1.338771 1.085289,-2.42406 2.42406,-2.42406z"/>
   </g>
  </g>
 </g>
</svg>