<svg width="48" height="48" xmlns="http://www.w3.org/2000/svg">
 <!-- Generator: Sketch 50.2 (55047) - http://www.bohemiancoding.com/sketch -->
 <title>skip_previous_48</title>
 <desc>Created with Sketch.</desc>

 <g>
  <title>background</title>
  <rect fill="none" id="canvas_background" height="402" width="582" y="-1" x="-1"/>
 </g>
 <g>
  <title>Layer 1</title>
  <g fill-rule="evenodd" fill="none" id="Page-2">
   <g id="skip_previous_48">
    <rect height="48" width="48" id="Rectangle-738"/>
    <path fill="#4a76a8" id="Mask" d="m23.999376,22.678988l0,-5.87072c0,-0.662742 -0.537258,-1.2 -1.2,-1.2c-0.207302,0 -0.41107,0.053703 -0.591444,0.155876l-12.697127,7.192295c-0.576654,0.326645 -0.779325,1.058914 -0.452679,1.635567c0.107116,0.189102 0.263577,0.345563 0.452679,0.452679l12.697127,7.192294c0.576653,0.326646 1.308922,0.123975 1.635568,-0.452679c0.102173,-0.180374 0.155876,-0.384141 0.155876,-0.591444l0,-5.872829l12.209184,6.915898c0.576653,0.326646 1.308922,0.123974 1.635567,-0.452679c0.102173,-0.180375 0.155877,-0.384142 0.155877,-0.591444l0,-14.384589c0,-0.662741 -0.537258,-1.199999 -1.2,-1.199999c-0.207303,0 -0.41107,0.053703 -0.591444,0.155876l-12.209184,6.915898z"/>
   </g>
  </g>
 </g>
</svg>