<svg width="24" height="24" xmlns="http://www.w3.org/2000/svg">
 <!-- Generator: Sketch 50.2 (55047) - http://www.bohemiancoding.com/sketch -->
 <title>repeat_24</title>
 <desc>Created with Sketch.</desc>

 <g>
  <title>background</title>
  <rect fill="none" id="canvas_background" height="402" width="582" y="-1" x="-1"/>
 </g>
 <g>
  <title>Layer 1</title>
  <g fill-rule="evenodd" fill="none" id="Page-2">
   <g id="repeat_24">
    <polygon points="0 0 24 0 24 24 0 24" id="Shape"/>
    <path fill="#4a76a8" id="Mask" d="m9.017627,16l7.482373,0c1.947715,0 3,-1.052285 3,-3c0,-0.552285 0.447715,-1 1,-1c0.552285,0 1,0.447715 1,1c0,3.052285 -1.947715,5 -5,5l-7.482373,0l0,1.750749c0,0.282984 -0.1756,0.364969 -0.392212,0.199324l-3.465576,-2.650146c-0.209595,-0.160279 -0.216613,-0.434209 0,-0.599854l3.465576,-2.650146c0.209594,-0.160279 0.392212,-0.076405 0.392212,0.199324l0,1.750749zm5.982373,-8l-7.5,0c-1.947715,0 -3,1.052285 -3,3c0,0.552285 -0.447715,1 -1,1c-0.552285,0 -1,-0.447715 -1,-1c0,-3.052285 1.947715,-5 5,-5l7.5,0l0,-1.750749c0,-0.275729 0.182617,-0.359603 0.392212,-0.199324l3.465576,2.650146c0.216613,0.165645 0.209595,0.439575 0,0.599854l-3.465576,2.650146c-0.216613,0.165645 -0.392212,0.08366 -0.392212,-0.199324l0,-1.750749z"/>
   </g>
  </g>
 </g>
</svg>