<svg width="24" height="24" xmlns="http://www.w3.org/2000/svg">
 <!-- Generator: Sketch 50.2 (55047) - http://www.bohemiancoding.com/sketch -->
 <title>shuffle_24</title>
 <desc>Created with Sketch.</desc>

 <g>
  <title>background</title>
  <rect fill="none" id="canvas_background" height="402" width="582" y="-1" x="-1"/>
 </g>
 <g>
  <title>Layer 1</title>
  <g fill-rule="evenodd" fill="none" id="Page-2">
   <g id="shuffle_24">
    <polygon points="0 0 24 0 24 24 0 24" id="Shape"/>
    <path fill="#a3a3a3" id="Mask" d="m19,15l0,-1.23315c0,-0.27752 0.22498,-0.5025 0.5025,-0.5025c0.11033,0 0.2176,0.03631 0.30524,0.10334l2.92028,2.23315c0.22045,0.16858 0.2625,0.48395 0.09392,0.7044c-0.02702,0.03533 -0.0586,0.06691 -0.09392,0.09392l-2.92028,2.23315c-0.22045,0.16859 -0.53582,0.12654 -0.7044,-0.09392c-0.06703,-0.08764 -0.10334,-0.19491 -0.10334,-0.30524l0,-1.23315l-3.5,0c-1.70197,0 -2.74629,-0.8437 -4.5,-3.26208c-1.75371,2.41838 -2.79803,3.26208 -4.5,3.26208l-2.5,0c-0.55228,0 -1,-0.44772 -1,-1c0,-0.55228 0.44772,-1 1,-1l2.5,0c0.89287,0 1.706,-0.76279 3.282,-3c-1.576,-2.23721 -2.38913,-3 -3.282,-3l-2.5,0c-0.55228,0 -1,-0.44772 -1,-1c0,-0.55228 0.44772,-1 1,-1l2.5,0c1.70197,0 2.74629,0.8437 4.5,3.26208c1.75371,-2.41838 2.79803,-3.26208 4.5,-3.26208l3.5,0l0,-1.23315c0,-0.27752 0.22498,-0.5025 0.5025,-0.5025c0.11033,0 0.2176,0.03631 0.30524,0.10334l2.92028,2.23315c0.22045,0.16858 0.2625,0.48395 0.09392,0.7044c-0.02702,0.03533 -0.0586,0.06691 -0.09392,0.09392l-2.92028,2.23315c-0.22045,0.16859 -0.53582,0.12654 -0.7044,-0.09392c-0.06703,-0.08764 -0.10334,-0.19491 -0.10334,-0.30524l0,-1.23315l-3.5,0c-0.89287,0 -1.706,0.76279 -3.282,3c1.576,2.23721 2.38913,3 3.282,3l3.5,0z"/>
   </g>
  </g>
 </g>
</svg>