<svg width="28" height="28" xmlns="http://www.w3.org/2000/svg">
 <!-- Generator: Sketch 63.1 (92452) - https://sketch.com -->

 <title>volume_outline_28</title>
 <desc>Created with Sketch.</desc>
 <g>
  <title>background</title>
  <rect fill="none" id="canvas_background" height="402" width="582" y="-1" x="-1"/>
 </g>
 <g>
  <title>Layer 1</title>
  <g fill-rule="evenodd" fill="none" id="Page-1">
   <g id="volume_outline_28">
    <rect id="svg_1" height="28" width="28"/>
    <path fill-rule="nonzero" fill="#4a76a8" id="↳-Icon-Color" d="m16,4c1.10457,0 2,0.89543 2,2l0,0l0,16c0,1.10457 -0.89543,2 -2,2c-0.905506,0 -1.773924,-0.359711 -2.414214,-1l0,0l-5,-5l-2.127453,0c-1.3577,0 -2.458333,-1.100633 -2.458333,-2.458333l0,0l0,-3.083334c0,-1.3577 1.100633,-2.458333 2.458333,-2.458333l0,0l2.127453,0l5,-5c0.64029,-0.640289 1.508708,-1 2.414214,-1zm0,2c-0.375073,0 -0.734784,0.148997 -1,0.414214l0,0l-5.292893,5.292893c-0.187537,0.187536 -0.441891,0.292893 -0.707107,0.292893l0,0l-2.541667,0c-0.25313,0 -0.458333,0.205203 -0.458333,0.458333l0,0l0,3.083334c0,0.25313 0.205203,0.458333 0.458333,0.458333l0,0l2.541667,0c0.265216,0 0.51957,0.105357 0.707107,0.292893l0,0l5.292893,5.292893c0.265216,0.265217 0.624927,0.414214 1,0.414214l0,0l0,-16zm7.864407,1.435694c0.390524,-0.390524 1.023689,-0.390524 1.414213,0c3.625367,3.625367 3.625367,9.503248 0,13.128616c-0.390524,0.390524 -1.023689,0.390524 -1.414213,0c-0.390525,-0.390525 -0.390525,-1.02369 0,-1.414214c2.844318,-2.844319 2.844318,-7.45587 0,-10.300189c-0.390525,-0.390524 -0.390525,-1.023689 0,-1.414213zm-2.969847,2.969843c0.390524,-0.390524 1.023689,-0.390524 1.414213,0c1.985166,1.985165 1.985166,5.203754 0,7.188919c-0.390524,0.390524 -1.023689,0.390524 -1.414213,0c-0.390524,-0.390524 -0.390524,-1.023689 0,-1.414213c1.204116,-1.204117 1.204116,-3.156376 0,-4.360492c-0.390524,-0.390524 -0.390524,-1.023689 0,-1.414214z"/>
   </g>
  </g>
 </g>
</svg>