<svg width="36" height="36" xmlns="http://www.w3.org/2000/svg">
 <!-- Generator: Sketch 50.2 (55047) - http://www.bohemiancoding.com/sketch -->
 <title>delete_36</title>
 <desc>Created with Sketch.</desc>

 <g>
  <title>background</title>
  <rect fill="none" id="canvas_background" height="402" width="582" y="-1" x="-1"/>
 </g>
 <g>
  <title>Layer 1</title>
  <g fill-rule="evenodd" fill="none" id="Page-2">
   <g id="delete_36">
    <rect height="36" width="36" y="0" x="0" id="Bounds"/>
    <path fill="#4a76a8" id="Mask" d="m13.43252,4c0.62875,-1.18945 1.87846,-2 3.31748,-2l2.5,0c1.43902,0 2.68873,0.81055 3.31748,2l5.93252,0c0.82843,0 1.5,0.67157 1.5,1.5l0,1.125c0,0.20711 -0.16789,0.375 -0.375,0.375l-23.25,0c-0.20711,0 -0.375,-0.16789 -0.375,-0.375l0,-1.125c0,-0.82843 0.67157,-1.5 1.5,-1.5l5.93252,0zm-5.93252,5l21,0l-1.69289,20.55776c-0.16018,1.94516 -1.78561,3.44224 -3.73735,3.44224l-10.13952,0c-1.95174,0 -3.57717,-1.49708 -3.73735,-3.44224l-1.69289,-20.55776zm16.18445,3.02697c-0.55058,-0.04333 -1.03204,0.36788 -1.07538,0.91846l-1.21611,15.45222c-0.04333,0.55058 0.36787,1.03204 0.91846,1.07538c0.55058,0.04333 1.03204,-0.36788 1.07537,-0.91846l1.21612,-15.45222c0.04333,-0.55058 -0.36788,-1.03204 -0.91846,-1.07538zm-5.68445,-0.02697c-0.55228,0 -1,0.44772 -1,1l0,15.5c0,0.55228 0.44772,1 1,1c0.55228,0 1,-0.44772 1,-1l0,-15.5c0,-0.55228 -0.44772,-1 -1,-1zm-5.68858,0.02697c-0.55059,0.04334 -0.96179,0.5248 -0.91846,1.07538l1.21611,15.45222c0.04334,0.55058 0.5248,0.96179 1.07538,0.91846c0.55058,-0.04334 0.96179,-0.5248 0.91846,-1.07538l-1.21612,-15.45222c-0.04333,-0.55058 -0.52479,-0.96179 -1.07537,-0.91846z"/>
   </g>
  </g>
 </g>
</svg>