<svg width="36" height="36" xmlns="http://www.w3.org/2000/svg">
 <!-- Generator: Sketch 50.2 (55047) - http://www.bohemiancoding.com/sketch -->
 <title>playlist_36</title>
 <desc>Created with Sketch.</desc>

 <g>
  <title>background</title>
  <rect fill="none" id="canvas_background" height="402" width="582" y="-1" x="-1"/>
 </g>
 <g>
  <title>Layer 1</title>
  <g fill-rule="evenodd" fill="none" id="Page-2">
   <g id="playlist_36">
    <polygon points="0 0 36 0 36 36 0 36" id="Shape"/>
    <path fill="#f62a54" id="Mask" d="m20.995,10l-15.99,0c-0.55505,0 -1.005,0.44995 -1.005,1.005l0,0.99c0,0.55505 0.44995,1.005 1.005,1.005l15.99,0c0.55505,0 1.005,-0.44995 1.005,-1.005l0,-0.99c0,-0.55505 -0.44995,-1.005 -1.005,-1.005zm0,6l-15.99,0c-0.55505,0 -1.005,0.44995 -1.005,1.005l0,0.99c0,0.55505 0.44995,1.005 1.005,1.005l15.99,0c0.55505,0 1.005,-0.44995 1.005,-1.005l0,-0.99c0,-0.55505 -0.44995,-1.005 -1.005,-1.005zm-15.99,9c-0.55505,0 -1.005,-0.44995 -1.005,-1.005l0,-0.99c0,-0.55505 0.44995,-1.005 1.005,-1.005l10.99,0c0.55505,0 1.005,0.44995 1.005,1.005l0,0.99c0,0.55505 -0.44995,1.005 -1.005,1.005l-10.99,0zm21.995,-1.86671c0,4.5124 -0.87472,5.38344 -4.3744,5.84219c-1.66823,0.21868 -3.6256,-0.53845 -3.6256,-3.16171c0,-1.2814 0.80181,-2.49826 2.46114,-2.81625c1.26723,-0.24284 -0.09078,0.0182 2.77608,-0.51404c0.69597,-0.1292 0.77484,-0.37823 0.77484,-0.90879c0,-0.26641 -0.00132,-2.59514 -0.00964,-4.19403l0,-4.31782c0,0 -0.00545,-2.05827 0,-3.08739c0.00651,-1.23087 0.67965,-1.68322 2.66379,-2.08398c0,0 3.02321,-0.57397 4.68523,-0.87542c0.36778,-0.06671 0.64856,0.07018 0.64856,0.49203c0,0 -0.01068,2.6221 0,4.05434c0.0031,0.4159 -0.16842,0.6042 -0.58997,0.67902c-1.6817,0.29849 -4.86493,0.86036 -4.86493,0.86036c-0.37388,0.09183 -0.5451,0.355 -0.5451,0.73329l0,9.2982z"/>
   </g>
  </g>
 </g>
</svg>