<svg height="40" viewBox="0 0 40 40" width="40" xmlns="http://www.w3.org/2000/svg"><g fill="#5C9CE6"><path d="m16.605 27.439c-.018-1.773 1.458-2.624 1.524-2.666-.83-1.203-2.121-1.368-2.582-1.387-1.1-.11-2.146.642-2.704.642-.557 0-1.418-.626-2.33-.61-1.2.018-2.304.692-2.922 1.756-1.245 2.142-.319 5.316.895 7.054.593.85 1.3 1.805 2.23 1.771.894-.035 1.232-.574 2.313-.574s1.385.574 2.332.557c.962-.018 1.572-.867 2.16-1.72.682-.987.962-1.942.979-1.991-.021-.01-1.877-.715-1.895-2.832zm-1.778-5.203c.492-.593.825-1.416.734-2.236-.71.029-1.57.469-2.08 1.06-.457.525-.857 1.362-.75 2.166.793.062 1.602-.399 2.096-.99z"/><path d="m24 29h2a1 1 0 0 0 1-1v-17a1 1 0 0 0 -1-1h-10a1 1 0 0 0 -1 1v5a1 1 0 0 1 -2 0v-5.154c0-1.337.14-1.822.4-2.311a2.726 2.726 0 0 1 1.136-1.135c.489-.262.974-.401 2.31-.401h8.31c1.336 0 1.821.14 2.31.4.49.262.873.646 1.134 1.135.262.489.401.974.401 2.31v17.156a3 3 0 0 1 -3 3h-3a1 1 0 0 1 0-2h1z"/></g></svg>