<svg height="40" viewBox="0 0 40 40" width="40" xmlns="http://www.w3.org/2000/svg"><path d="m34 28h1a1 1 0 0 1 0 2h-30a1 1 0 0 1 0-2h1v-16.436c0-.892.093-1.215.267-1.54.174-.327.43-.583.756-.757s.65-.267 1.54-.267h22.873c.892 0 1.215.093 1.54.267.327.174.583.43.757.756s.267.65.267 1.54zm-2 0v-16.359c0-.223-.023-.304-.067-.385a.454.454 0 0 0 -.189-.19c-.081-.043-.162-.066-.385-.066h-22.718c-.223 0-.304.023-.385.067a.454.454 0 0 0 -.19.189c-.043.081-.066.162-.066.385v16.359z" fill="#5C9CE6"/></svg>