<svg width="512" height="512" xmlns="http://www.w3.org/2000/svg">

 <g>
  <title>background</title>
  <rect fill="none" id="canvas_background" height="402" width="582" y="-1" x="-1"/>
 </g>
 <g>
  <title>Layer 1</title>
  <g id="svg_1">
   <path fill="#f62a54" id="svg_2" d="m185.255,512c-76.201,-0.439 -139.233,-155.991 -139.233,-235.21c0,-129.404 97.075,-157.734 134.487,-157.734c16.86,0 34.863,6.621 50.742,12.48c11.104,4.087 22.588,8.306 28.975,8.306c3.823,0 12.832,-3.589 20.786,-6.738c16.963,-6.753 38.071,-15.146 62.651,-15.146c0.044,0 0.103,0 0.146,0c18.354,0 74.004,4.028 107.461,54.272l7.837,11.777l-11.279,8.511c-16.113,12.158 -45.513,34.336 -45.513,78.267c0,52.031 33.296,72.041 49.292,81.665c7.061,4.248 14.37,8.628 14.37,18.208c0,6.255 -49.922,140.566 -122.417,140.566c-17.739,0 -30.278,-5.332 -41.338,-10.034c-11.191,-4.761 -20.845,-8.862 -36.797,-8.862c-8.086,0 -18.311,3.823 -29.136,7.881c-14.793,5.521 -31.537,11.791 -50.536,11.791l-0.498,0z"/>
   <path fill="#f62a54" id="svg_3" d="m351.343,0c1.888,68.076 -46.797,115.304 -95.425,112.342c-8.013,-54.327 48.622,-112.342 95.425,-112.342z"/>
  </g>
 </g>
</svg>