<svg width="32" height="32" xmlns="http://www.w3.org/2000/svg">
 <!-- Generator: Sketch 50.2 (55047) - http://www.bohemiancoding.com/sketch -->
 <title>discussions_32</title>
 <desc>Created with Sketch.</desc>

 <g>
  <title>background</title>
  <rect fill="none" id="canvas_background" height="402" width="582" y="-1" x="-1"/>
 </g>
 <g>
  <title>Layer 1</title>
  <g fill-rule="evenodd" fill="none" id="Page-2">
   <g id="discussions_32">
    <polygon points="0 0 32 0 32 32 0 32" id="Shape"/>
    <path fill="#4a76a8" id="Mask" d="m24.997822,8.670141l0,7.316514c0,2.220184 -1.799815,4.02 -4.02,4.02l-11.98,0l0,1.99c0,1.110092 0.899907,2.01 2.01,2.01l12.656666,0l4.189573,4.189572c0.261651,0.261652 0.685872,0.261652 0.947523,0c0.125649,-0.125649 0.196239,-0.296066 0.196239,-0.473761l0.000009,-17.042325c0.000001,-1.110092 -0.899906,-2.01 -2.009998,-2.010001c-0.000001,0 -0.000001,0 -0.000002,0l-1.99001,0.000001zm-4.677822,-4.670141l-15.31,0c-1.110092,0 -2.01,0.899908 -2.01,2.01l0,15.70899c0,0.370031 0.299969,0.67 0.67,0.67c0.177695,0 0.348112,-0.070589 0.473762,-0.196238l4.189571,-4.189572l12.656667,0c1.110092,0 2.01,-0.899908 2.01,-2.01l0,-9.31318c0,-1.480123 -1.199877,-2.68 -2.68,-2.68z"/>
   </g>
  </g>
 </g>
</svg>