<svg width="28" height="28" xmlns="http://www.w3.org/2000/svg">
 <!-- Generator: Sketch 63.1 (92452) - https://sketch.com -->

 <title>download_cloud_outline_28</title>
 <desc>Created with Sketch.</desc>
 <g>
  <title>background</title>
  <rect fill="none" id="canvas_background" height="402" width="582" y="-1" x="-1"/>
 </g>
 <g>
  <title>Layer 1</title>
  <g fill-rule="evenodd" fill="none" id="Page-1">
   <g id="download_cloud_outline_28">
    <rect height="28" width="28" y="0" x="0" id="Bounds"/>
    <path fill-rule="nonzero" fill="#ffffff" id="↳-Icon-Color" d="m14,11.125c0.446076,0 0.814189,0.333799 0.868182,0.765242l0.006818,0.109758l0,11.071l2.564839,-2.243194c0.371242,-0.309368 0.922986,-0.25921 1.232355,0.112033c0.283588,0.340305 0.265073,0.832282 -0.025934,1.150208l-0.086099,0.082147l-4,3.5l-0.032129,0.025766c-0.014809,0.011224 -0.029911,0.021923 -0.04528,0.032094l0.077409,-0.05786c-0.042159,0.035132 -0.086646,0.065628 -0.132841,0.091544c-0.013655,0.007718 -0.027065,0.014752 -0.040621,0.021418c-0.023013,0.011352 -0.046732,0.021765 -0.070751,0.031066c-0.010591,0.004005 -0.021279,0.007893 -0.032027,0.011568c-0.022235,0.007734 -0.044624,0.014403 -0.067178,0.020151c-0.01528,0.003755 -0.03103,0.007315 -0.046857,0.010438c-0.02051,0.004172 -0.040863,0.007428 -0.061275,0.009962c-0.017415,0.002069 -0.034847,0.003719 -0.052316,0.004848c-0.018266,0.00123 -0.036952,0.001829 -0.055627,0.001833c-0.019344,0.000017 -0.038364,-0.000582 -0.057362,-0.0018c-0.01707,-0.001162 -0.034502,-0.002812 -0.051873,-0.00498c-0.020456,-0.002435 -0.040809,-0.005691 -0.061062,-0.009674c-0.016084,-0.003312 -0.031834,-0.006872 -0.047487,-0.010867c-0.022181,-0.005508 -0.04457,-0.012177 -0.066736,-0.019772c-0.010817,-0.003814 -0.021505,-0.007702 -0.032123,-0.011802c-0.023992,-0.009206 -0.047711,-0.019619 -0.071055,-0.031152c-0.013225,-0.006485 -0.026635,-0.013519 -0.039883,-0.020918c-0.046602,-0.026235 -0.091089,-0.056731 -0.133248,-0.091863l0.077409,0.05786c-0.015369,-0.010171 -0.030471,-0.02087 -0.04528,-0.032094l-0.032129,-0.025766l-4,-3.5l-0.086099,-0.082147c-0.291007,-0.317926 -0.309521,-0.809903 -0.025934,-1.150208c0.309369,-0.371243 0.861113,-0.421401 1.232355,-0.112033l0,0l2.564839,2.243194l0,-11.071c0,-0.483249 0.391751,-0.875 0.875,-0.875zm2.083333,-8.125c3.466788,0 6.291444,2.749291 6.412617,6.186521l0.00405,0.213479l0.066333,0.035637c1.412765,0.788714 2.352817,2.264014 2.428702,3.929431l0.004965,0.218265c0,2.467627 -1.885808,4.508006 -4.35391,4.730995l-0.219252,0.014924l-2.42653,0.000748c-0.552284,0.00017 -1.000138,-0.447407 -1.000308,-0.999692c-0.000158,-0.512835 0.385752,-0.935626 0.883073,-0.993544l0.116619,-0.006764l2.380546,0.000324c1.462573,-0.067778 2.619762,-1.276553 2.619762,-2.746991c0,-1.1848 -0.756193,-2.225137 -1.858292,-2.60173c-0.444447,-0.151869 -0.723309,-0.592578 -0.67025,-1.05925c0.018971,-0.166854 0.028542,-0.335574 0.028542,-0.505686c0,-2.439258 -1.977409,-4.416667 -4.416667,-4.416667c-1.357768,0 -2.612109,0.615252 -3.444459,1.653668c-0.290075,0.36189 -0.790914,0.476832 -1.209758,0.27764c-0.364764,-0.173474 -0.764469,-0.264641 -1.179116,-0.264641c-1.518783,0 -2.75,1.231217 -2.75,2.75c0,0.152692 0.012347,0.302381 0.03665,0.447621c0.081018,0.484194 -0.201418,0.955592 -0.666577,1.112547c-1.108372,0.373988 -1.870073,1.417423 -1.870073,2.606498c0,1.462532 1.141705,2.658405 2.581949,2.744982l0.167458,0.005018l2.25,-0.001333c0.552285,-0.000327 1.000265,0.447123 1.000593,0.999407c0.000304,0.512836 -0.385486,0.935736 -0.88279,0.993796l-0.116617,0.006797l-2.250593,0.001333c-2.623353,0 -4.75,-2.126647 -4.75,-4.75c0,-1.760272 0.966201,-3.335315 2.448548,-4.15643l0.051452,-0.027903l0.004888,-0.199761c0.110395,-2.450362 2.077323,-4.417289 4.527684,-4.527684l0.217428,-0.004888c0.356698,0 0.708285,0.039513 1.049665,0.116581l0.272335,0.070752l0.033812,-0.032946c1.119113,-1.092367 2.608641,-1.749395 4.209691,-1.815529l0.26783,-0.005525z"/>
   </g>
  </g>
 </g>
</svg>