<svg width="24" height="24" xmlns="http://www.w3.org/2000/svg">
 <!-- Generator: Sketch 50.2 (55047) - http://www.bohemiancoding.com/sketch -->
 <title>error_24</title>
 <desc>Created with Sketch.</desc>

 <g>
  <title>background</title>
  <rect fill="none" id="canvas_background" height="402" width="582" y="-1" x="-1"/>
 </g>
 <g>
  <title>Layer 1</title>
  <g fill-rule="evenodd" fill="none" id="Page-2">
   <g id="error_24">
    <rect height="24" width="24" id="Body"/>
    <path fill="#f62a54" id="Mask" d="m12,22c-1.10457,0 -2,-0.89543 -2,-2c0,-1.10457 0.89543,-2 2,-2c1.10457,0 2,0.89543 2,2c0,1.10457 -0.89543,2 -2,2zm-1.004602,-20l2.009242,0c0.552285,0 1,0.447715 1,1c0,0.012148 -0.000221,0.024295 -0.000664,0.036436l-0.416854,11.433272c-0.011145,0.305684 -0.089243,0.577611 -0.222407,0.804321c-0.133164,0.22671 -0.321394,0.408203 -0.552805,0.533018c-0.231412,0.124815 -0.506004,0.192953 -0.811891,0.192953c-0.305887,0 -0.580479,-0.068138 -0.81189,-0.192953c-0.231412,-0.124815 -0.419642,-0.306308 -0.552806,-0.533018c-0.133164,-0.22671 -0.211262,-0.498637 -0.222407,-0.804321l-0.416854,-11.433272c-0.020123,-0.551919 0.410982,-1.015649 0.962901,-1.035772c0.01214,-0.000443 0.024287,-0.000664 0.036435,-0.000664z"/>
   </g>
  </g>
 </g>
</svg>