<svg width="28" height="28" xmlns="http://www.w3.org/2000/svg">
 <!-- Generator: Sketch 63.1 (92452) - https://sketch.com -->

 <title>key_outline_28</title>
 <desc>Created with Sketch.</desc>
 <g>
  <title>background</title>
  <rect fill="none" id="canvas_background" height="402" width="582" y="-1" x="-1"/>
 </g>
 <g>
  <title>Layer 1</title>
  <g fill-rule="evenodd" fill="none" id="Page-1">
   <g id="key_outline_28">
    <rect id="svg_1" height="28" width="28" y="0" x="0"/>
    <path fill-rule="nonzero" fill="#7da9d8" id="↳-Icon-Color" d="m25,2c0.552285,0 1,0.447715 1,1l0,0l0,4c0,0.552285 -0.447715,1 -1,1l0,0l-2,0l0,2c0,0.512836 -0.38604,0.935507 -0.883379,0.993272l0,0l-0.116621,0.006728l-2,0l0,2c0,0.512836 -0.38604,0.935507 -0.883379,0.993272l0,0l-0.116621,0.006728l-2.556,0l0.180875,0.29929c0.580003,1.020556 0.916043,2.171204 0.968022,3.372029l0,0l0.007103,0.328681c0,4.142136 -3.357864,7.5 -7.5,7.5c-4.142136,0 -7.5,-3.357864 -7.5,-7.5c0,-4.142136 3.357864,-7.5 7.5,-7.5c0.584932,0 1.161413,0.067164 1.720829,0.198574l0,0l0.053171,0.013426l8.418856,-8.41907c0.156283,-0.156299 0.358976,-0.255523 0.575691,-0.284256l0,0l0.131453,-0.008674l4,0zm-1,2l-2.586,0l-8.541074,8.542211c-0.238401,0.238426 -0.578468,0.338712 -0.903706,0.273443l0,0l-0.121042,-0.03229c-0.558033,-0.186911 -1.145906,-0.283364 -1.748178,-0.283364c-3.037566,0 -5.5,2.462434 -5.5,5.5c0,3.037566 2.462434,5.5 5.5,5.5c3.037566,0 5.5,-2.462434 5.5,-5.5c0,-1.291557 -0.445349,-2.512058 -1.247982,-3.488901c-0.326533,-0.397406 -0.298347,-0.977697 0.065164,-1.341586l0,0l0.875344,-0.876253c0.187567,-0.187761 0.442078,-0.29326 0.707474,-0.29326l0,0l2,0l0,-2c0,-0.512836 0.38604,-0.935507 0.883379,-0.993272l0,0l0.116621,-0.006728l2,0l0,-2c0,-0.512836 0.38604,-0.935507 0.883379,-0.993272l0,0l0.116621,-0.006728l2,0l0,-2zm-15.5,14.2c0.71797,0 1.3,0.58203 1.3,1.3c0,0.71797 -0.58203,1.3 -1.3,1.3c-0.71797,0 -1.3,-0.58203 -1.3,-1.3c0,-0.71797 0.58203,-1.3 1.3,-1.3z"/>
   </g>
  </g>
 </g>
</svg>