<svg width="36" height="36" xmlns="http://www.w3.org/2000/svg">
 <!-- Generator: Sketch 50.2 (55047) - http://www.bohemiancoding.com/sketch -->
 <title>like_36</title>
 <desc>Created with Sketch.</desc>

 <g>
  <title>background</title>
  <rect fill="none" id="canvas_background" height="402" width="582" y="-1" x="-1"/>
 </g>
 <g>
  <title>Layer 1</title>
  <g fill-rule="evenodd" fill="none" id="Page-2">
   <g id="like_36">
    <rect height="36" width="36" y="0" x="0" id="icon-bounds"/>
    <path fill-rule="nonzero" fill="#f62a54" id="Mask" d="m18.952492,8.449736c3.39892,-2.525041 8.146186,-2.680144 11.103364,0.006265c0.117346,0.106601 0.231855,0.216332 0.343407,0.329075c3.467649,3.504687 3.467649,9.180372 -0.054617,12.73754l-10.831205,9.89399c-0.859614,0.785232 -2.176285,0.784986 -3.035606,-0.000566l-10.877098,-9.945906c-3.467649,-3.504686 -3.467649,-9.180371 0,-12.685058c0.111552,-0.112743 0.226061,-0.222474 0.343407,-0.329075c2.957179,-2.686409 7.704444,-2.531306 11.176359,0.051564c0.299837,0.253078 0.592784,0.52394 0.8789,0.81247c0.300992,-0.301625 0.617013,-0.59046 0.953089,-0.870299z"/>
   </g>
  </g>
 </g>
</svg>