<svg width="24" height="24" xmlns="http://www.w3.org/2000/svg">
 <!-- Generator: Sketch 50.2 (55047) - http://www.bohemiancoding.com/sketch -->
 <title>linked_24</title>
 <desc>Created with Sketch.</desc>

 <g>
  <title>background</title>
  <rect fill="none" id="canvas_background" height="402" width="582" y="-1" x="-1"/>
 </g>
 <g>
  <title>Layer 1</title>
  <g fill-rule="evenodd" fill="none" id="Page-2">
   <g id="linked_24">
    <polygon points="0 0 24 0 24 24 0 24" id="Bounds"/>
    <path fill-rule="nonzero" fill="#4a76a8" id="Mask" d="m10.59,13.41c0.41,0.39 0.41,1.03 0,1.42c-0.39,0.39 -1.03,0.39 -1.42,0c-1.95,-1.95 -1.95,-5.12 0,-7.07l3.54,-3.54c1.95,-1.95 5.12,-1.95 7.07,0c1.95,1.95 1.95,5.12 0,7.07l-1.49,1.49c0.01,-0.82 -0.12,-1.64 -0.4,-2.42l0.47,-0.48c1.18,-1.17 1.18,-3.07 0,-4.24c-1.17,-1.18 -3.07,-1.18 -4.24,0l-3.53,3.53c-1.18,1.17 -1.18,3.07 0,4.24zm2.82,-4.24c0.39,-0.39 1.03,-0.39 1.42,0c1.95,1.95 1.95,5.12 0,7.07l-3.54,3.54c-1.95,1.95 -5.12,1.95 -7.07,0c-1.95,-1.95 -1.95,-5.12 0,-7.07l1.49,-1.49c-0.01,0.82 0.12,1.64 0.4,2.43l-0.47,0.47c-1.18,1.17 -1.18,3.07 0,4.24c1.17,1.18 3.07,1.18 4.24,0l3.53,-3.53c1.18,-1.17 1.18,-3.07 0,-4.24c-0.41,-0.39 -0.41,-1.03 0,-1.42z"/>
   </g>
  </g>
 </g>
</svg>