<svg width="24" height="34" xmlns="http://www.w3.org/2000/svg">
 <!-- Generator: Sketch 50.2 (55047) - http://www.bohemiancoding.com/sketch -->
 <title>mention_24</title>
 <desc>Created with Sketch.</desc>

 <g>
  <title>background</title>
  <rect fill="none" id="canvas_background" height="402" width="582" y="-1" x="-1"/>
 </g>
 <g>
  <title>Layer 1</title>
  <g fill-rule="evenodd" fill="none" id="Page-2">
   <g id="mention_24">
    <rect height="24" width="24" y="7" x="0" id="Mask"/>
    <path fill="#6d97c4" id="Mask" d="m12.00658,29.86899c-2.01888,0 -3.78099,-0.40816 -5.28637,-1.22449c-1.50538,-0.81633 -2.66842,-1.97497 -3.48914,-3.47597c-0.82072,-1.50099 -1.23107,-3.25213 -1.23107,-5.25345l0,-0.72416c0,-1.99255 0.42791,-3.76124 1.28374,-5.30613c0.85583,-1.54488 2.05836,-2.74522 3.60764,-3.60105c1.54927,-0.85583 3.32015,-1.28374 5.3127,-1.28374l0.10533,0c1.86089,0 3.52644,0.38402 4.99671,1.15207c1.47028,0.76806 2.62014,1.83015 3.44964,3.18631c0.8295,1.35616 1.24424,2.89444 1.24424,4.61488l0,0.65833c0,1.17621 -0.19311,2.21636 -0.57933,3.12047c-0.38622,0.90411 -0.92604,1.60851 -1.61948,2.11323c-0.69345,0.50472 -1.49221,0.75708 -2.39632,0.75708c-0.81633,0 -1.51854,-0.17116 -2.10665,-0.5135c-0.58811,-0.34233 -0.93921,-0.78999 -1.05332,-1.34298l-0.13167,0c-0.09655,0.34233 -0.28966,0.65613 -0.57933,0.9414c-0.28966,0.28528 -0.64296,0.50911 -1.0599,0.6715c-0.41695,0.16239 -0.85363,0.24358 -1.31008,0.24358c-0.71977,0 -1.34737,-0.17555 -1.88281,-0.52666c-0.53545,-0.35111 -0.94799,-0.85144 -1.23766,-1.50099c-0.28967,-0.64955 -0.4345,-1.41759 -0.4345,-2.30415l0,-1.31665c0,-0.86022 0.14703,-1.61071 0.44108,-2.25148c0.29406,-0.64078 0.71538,-1.13233 1.26399,-1.47466c0.54861,-0.34233 1.19157,-0.51349 1.9289,-0.51349c0.64956,0 1.2201,0.16019 1.71166,0.48058c0.49155,0.32038 0.81632,0.73951 0.97432,1.2574l0.10533,0l0,-0.34233c0,-0.35111 0.09656,-0.6298 0.28967,-0.83608c0.19311,-0.20627 0.45644,-0.30941 0.78999,-0.30941c0.32478,0 0.58372,0.10314 0.77683,0.30941c0.19311,0.20628 0.28966,0.48497 0.28966,0.83608l0,5.26662c0,0.44767 0.13605,0.80536 0.40817,1.07308c0.27211,0.26772 0.6276,0.40158 1.06649,0.40158c0.46522,0 0.87338,-0.17994 1.22449,-0.53983c0.35111,-0.35989 0.62102,-0.87118 0.80974,-1.5339c0.18872,-0.66272 0.28308,-1.43735 0.28308,-2.3239l0,-0.4345c0,-1.3781 -0.32697,-2.61136 -0.98091,-3.6998c-0.65394,-1.08844 -1.56242,-1.93987 -2.72548,-2.55431c-1.16305,-0.61445 -2.48188,-0.92166 -3.95655,-0.92166l-0.10533,0c-1.59755,0 -3.01074,0.3511 -4.23963,1.05332c-1.22888,0.70222 -2.18345,1.6919 -2.86373,2.96906c-0.68027,1.27716 -1.0204,2.74522 -1.0204,4.40421l0,0.56617c0,1.65021 0.32916,3.09633 0.98749,4.33838c0.65833,1.24205 1.59095,2.19881 2.79789,2.87031c1.20694,0.67149 2.61355,1.00724 4.21988,1.00724l0.10534,0c0.59688,0 1.33859,-0.06583 2.22514,-0.1975c0.46522,-0.06144 0.76805,-0.09217 0.9085,-0.09217c0.25455,0 0.46521,0.07681 0.63199,0.23042c0.16678,0.15361 0.25016,0.34891 0.25016,0.58591c0,0.237 -0.07022,0.43888 -0.21066,0.60566c-0.14044,0.16678 -0.34233,0.28528 -0.60566,0.3555c-0.85144,0.21944 -1.93987,0.32916 -3.26531,0.32916l-0.1185,0zm-2.10665,-9.90125c0,0.88655 0.16897,1.56024 0.50692,2.02107c0.33794,0.46083 0.83607,0.69124 1.4944,0.69124c0.64955,0 1.14549,-0.22163 1.48782,-0.66491c0.34233,-0.44327 0.5135,-1.08624 0.5135,-1.9289l0,-1.06649c0,-0.77244 -0.18214,-1.38249 -0.54641,-1.83015c-0.36428,-0.44767 -0.85802,-0.6715 -1.48124,-0.6715c-0.62322,0 -1.10819,0.23481 -1.45491,0.70441c-0.34672,0.46961 -0.52008,1.12574 -0.52008,1.96841l0,0.77682z"/>
   </g>
  </g>
 </g>
</svg>