<svg width="20" height="20" xmlns="http://www.w3.org/2000/svg">

 <g>
  <title>background</title>
  <rect fill="none" id="canvas_background" height="402" width="582" y="-1" x="-1"/>
 </g>
 <g>
  <title>Layer 1</title>
  <path id="svg_1" fill-rule="evenodd" fill="#ffffff" d="m10,19c-1.35417,0 -2.5,-0.7 -2.5,-2l5,0c0,1.3 -1.14583,2 -2.5,2zm5.99569,-7c0,1.5 2.00431,1.5 2.00431,2.5c0,0.5 0,1.5 -2.1044,1.5l-11.91129,0c-1.98431,0 -1.98431,-1 -1.98431,-1.5c0,-1 1.98431,-1 2,-2.5l0,-3c0,-4 2.09725,-6.5 5,-6.9l0,-0.1c0,-0.6 0.5,-1 1,-1s1,0.4 1,1l0,0.1c2.90275,0.4 4.99569,2.9 4.99569,6.9l0,3z"/>
 </g>
</svg>