<svg width="24" height="24" xmlns="http://www.w3.org/2000/svg">
 <!-- Generator: Sketch 50.2 (55047) - http://www.bohemiancoding.com/sketch -->
 <title>qr_24</title>
 <desc>Created with Sketch.</desc>

 <g>
  <title>background</title>
  <rect fill="none" id="canvas_background" height="402" width="582" y="-1" x="-1"/>
 </g>
 <g>
  <title>Layer 1</title>
  <g fill-rule="evenodd" fill="none" id="Page-2">
   <g id="qr_24">
    <polygon points="0 0 24 0 24 24 0 24" id="Bounds"/>
    <path fill="#729dcc" id="Mask" d="m19.5,19l1.5,0c0.27614,0 0.5,0.22386 0.5,0.5l0,1.5c0,0.27614 -0.22386,0.5 -0.5,0.5l-1.5,0c-0.27614,0 -0.5,-0.22386 -0.5,-0.5l0,-1.5c0,-0.27614 0.22386,-0.5 0.5,-0.5zm-5.5,0l1.5,0c0.27614,0 0.5,0.22386 0.5,0.5l0,1.5c0,0.27614 -0.22386,0.5 -0.5,0.5l-1.5,0c-0.27614,0 -0.5,-0.22386 -0.5,-0.5l0,-1.5c0,-0.27614 0.22386,-0.5 0.5,-0.5zm2.75,-2.75l1.5,0c0.27614,0 0.5,0.22386 0.5,0.5l0,1.5c0,0.27614 -0.22386,0.5 -0.5,0.5l-1.5,0c-0.27614,0 -0.5,-0.22386 -0.5,-0.5l0,-1.5c0,-0.27614 0.22386,-0.5 0.5,-0.5zm2.75,-2.75l1.5,0c0.27614,0 0.5,0.22386 0.5,0.5l0,1.5c0,0.27614 -0.22386,0.5 -0.5,0.5l-1.5,0c-0.27614,0 -0.5,-0.22386 -0.5,-0.5l0,-1.5c0,-0.27614 0.22386,-0.5 0.5,-0.5zm-5.5,0l1.5,0c0.27614,0 0.5,0.22386 0.5,0.5l0,1.5c0,0.27614 -0.22386,0.5 -0.5,0.5l-1.5,0c-0.27614,0 -0.5,-0.22386 -0.5,-0.5l0,-1.5c0,-0.27614 0.22386,-0.5 0.5,-0.5zm-9.5,-0.5l4,0c1.38071,0 2.5,1.11929 2.5,2.5l0,4c0,1.38071 -1.11929,2.5 -2.5,2.5l-4,0c-1.38071,0 -2.5,-1.11929 -2.5,-2.5l0,-4c0,-1.38071 1.11929,-2.5 2.5,-2.5zm0.25,1.75c-0.55228,0 -1,0.44772 -1,1l0,3.5c0,0.55228 0.44772,1 1,1l3.5,0c0.55228,0 1,-0.44772 1,-1l0,-3.5c0,-0.55228 -0.44772,-1 -1,-1l-3.5,0zm1,1.5l1.5,0c0.27614,0 0.5,0.22386 0.5,0.5l0,1.5c0,0.27614 -0.22386,0.5 -0.5,0.5l-1.5,0c-0.27614,0 -0.5,-0.22386 -0.5,-0.5l0,-1.5c0,-0.27614 0.22386,-0.5 0.5,-0.5zm9.75,-14.25l4,0c1.38071,0 2.5,1.11929 2.5,2.5l0,4c0,1.38071 -1.11929,2.5 -2.5,2.5l-4,0c-1.38071,0 -2.5,-1.11929 -2.5,-2.5l0,-4c0,-1.38071 1.11929,-2.5 2.5,-2.5zm0.25,1.75c-0.55228,0 -1,0.44772 -1,1l0,3.5c0,0.55228 0.44772,1 1,1l3.5,0c0.55228,0 1,-0.44772 1,-1l0,-3.5c0,-0.55228 -0.44772,-1 -1,-1l-3.5,0zm1,1.5l1.5,0c0.27614,0 0.5,0.22386 0.5,0.5l0,1.5c0,0.27614 -0.22386,0.5 -0.5,0.5l-1.5,0c-0.27614,0 -0.5,-0.22386 -0.5,-0.5l0,-1.5c0,-0.27614 0.22386,-0.5 0.5,-0.5zm-12.25,-3.25l4,0c1.38071,0 2.5,1.11929 2.5,2.5l0,4c0,1.38071 -1.11929,2.5 -2.5,2.5l-4,0c-1.38071,0 -2.5,-1.11929 -2.5,-2.5l0,-4c0,-1.38071 1.11929,-2.5 2.5,-2.5zm0.25,1.75c-0.55228,0 -1,0.44772 -1,1l0,3.5c0,0.55228 0.44772,1 1,1l3.5,0c0.55228,0 1,-0.44772 1,-1l0,-3.5c0,-0.55228 -0.44772,-1 -1,-1l-3.5,0zm1,1.5l1.5,0c0.27614,0 0.5,0.22386 0.5,0.5l0,1.5c0,0.27614 -0.22386,0.5 -0.5,0.5l-1.5,0c-0.27614,0 -0.5,-0.22386 -0.5,-0.5l0,-1.5c0,-0.27614 0.22386,-0.5 0.5,-0.5z"/>
   </g>
  </g>
 </g>
</svg>