<?xml version="1.0" encoding="UTF-8"?>
<svg xmlns="http://www.w3.org/2000/svg" xmlns:xlink="http://www.w3.org/1999/xlink" width="500pt" height="500pt" viewBox="0 0 500 500" version="1.1">
<g id="surface16178656">
<path style=" stroke:none;fill-rule:nonzero;fill:rgb(29.019608%,46.27451%,65.882353%);fill-opacity:1;" d="M 322.1875 20.625 L 278.4375 37.8125 L 286.25 75.625 C 283.203125 78.671875 279.960938 82.1875 276.5625 85.9375 L 239.0625 77.5 L 220.625 120.625 L 252.5 141.875 C 252.148438 147.148438 252.148438 152.539062 252.5 157.8125 L 219.6875 177.8125 L 236.875 221.5625 L 273.75 214.0625 C 277.070312 218.046875 280.703125 221.679688 284.6875 225 L 276.25 261.875 L 319.6875 280.3125 L 340.9375 248.4375 C 346.25 248.789062 351.25 248.789062 356.5625 248.4375 L 376.875 281.25 L 420.625 264.0625 L 412.1875 224.0625 C 416.132812 220.78125 419.53125 217.03125 422.8125 213.125 L 460.9375 222.8125 L 479.6875 179.0625 L 446.5625 158.75 C 446.875 153.554688 446.875 148.632812 446.5625 143.4375 L 479.375 123.125 L 462.1875 79.375 L 424.0625 87.8125 C 420.78125 83.867188 417.070312 80.15625 413.125 76.875 L 421.5625 40 L 378.125 21.5625 L 357.8125 53.4375 C 352.578125 52.929688 347.304688 52.65625 342.1875 53.125 Z M 350 110 C 372.109375 110 390 127.890625 390 150 C 390 172.109375 372.109375 190 350 190 C 327.890625 190 310 172.109375 310 150 C 310 127.890625 327.890625 110 350 110 Z M 135.3125 200 L 129.0625 240 C 123.554688 241.757812 117.96875 244.257812 112.5 247.1875 L 79.0625 222.8125 L 44.0625 257.8125 L 67.1875 291.5625 C 64.414062 297.03125 62.226562 302.539062 60.3125 308.125 L 20 315.625 L 20 364.375 L 60 371.5625 C 61.757812 377.109375 64.21875 382.929688 67.1875 388.4375 L 42.8125 420.9375 L 77.8125 455.9375 L 111.5625 432.8125 C 116.992188 435.585938 122.578125 437.773438 128.125 439.6875 L 134.375 480 L 183.4375 480 L 190.625 440 C 196.210938 438.242188 201.992188 435.78125 207.5 432.8125 L 240.9375 457.1875 L 275.9375 422.1875 L 251.875 388.4375 C 254.609375 383.007812 256.523438 377.421875 258.4375 371.875 L 300 364.375 L 300 315.3125 L 259.0625 309.0625 C 257.304688 303.554688 254.804688 297.929688 251.875 292.5 L 275.9375 259.0625 L 241.25 222.8125 L 207.1875 247.1875 C 201.835938 244.453125 196.445312 242.226562 190.9375 240.3125 L 184.6875 200 Z M 160 300 C 181.992188 300 200 318.007812 200 340 C 200 361.992188 181.992188 380 160 380 C 138.007812 380 120 361.992188 120 340 C 120 318.007812 138.007812 300 160 300 Z M 160 300 "/>
</g>
</svg>
