<svg width="24" height="24" xmlns="http://www.w3.org/2000/svg">
 <!-- Generator: Sketch 50.2 (55047) - http://www.bohemiancoding.com/sketch -->
 <title>logo_google_24</title>
 <desc>Created with Sketch.</desc>

 <g>
  <title>background</title>
  <rect fill="none" id="canvas_background" height="402" width="582" y="-1" x="-1"/>
 </g>
 <g>
  <title>Layer 1</title>
  <g fill-rule="evenodd" fill="none" id="Page-2">
   <g id="logo_google_24">
    <rect height="24" width="24" id="Rectangle-537"/>
    <path fill="#4a76a8" id="Mask" d="m12.178879,2.008386c2.512498,-0.114693 4.874308,0.959402 6.798605,2.468105c-0.821334,0.916861 -1.671766,1.800028 -2.580394,2.62602c-2.313313,-1.570643 -5.60315,-2.019544 -7.916463,-0.205222c-3.309236,2.24859 -3.459924,7.557807 -0.27678,9.978265c3.095502,2.759772 8.762696,1.432467 9.76045,-2.375554c-1.689388,-0.028588 -4.047756,0.061941 -5.986602,0c-0.00485,-1.136377 -0.00485,-2.613964 0,-3.75c3.24134,-0.009529 6.731505,-0.024164 9.977695,0c0.194335,2.673667 -0.212877,5.347549 -1.884643,7.558021c-2.531896,3.499659 -7.614741,4.521343 -11.580421,3.02217c-3.979882,-1.489644 -6.798604,-5.619602 -6.463281,-9.830559c0.087641,-5.151642 4.908255,-9.663115 10.151834,-9.491246z"/>
   </g>
  </g>
 </g>
</svg>