<svg width="24" height="24" xmlns="http://www.w3.org/2000/svg">
 <!-- Generator: Sketch 50.2 (55047) - http://www.bohemiancoding.com/sketch -->
 <title>pin_24</title>
 <desc>Created with Sketch.</desc>

 <g>
  <title>background</title>
  <rect fill="none" id="canvas_background" height="402" width="582" y="-1" x="-1"/>
 </g>
 <g>
  <title>Layer 1</title>
  <g fill-rule="evenodd" fill="none" id="Page-2">
   <g id="pin_24">
    <rect height="24" width="24" y="0" x="0" id="Rectangle-5"/>
    <path fill="#4a76a8" id="Combined-Shape" d="m10.382256,15.384066l-4.748373,4.748372c-0.488155,0.488156 -1.279611,0.488156 -1.767766,0c-0.488156,-0.488155 -0.488156,-1.279611 0,-1.767767l4.748372,-4.748372l-3.887127,-3.887126c-0.135026,-0.135026 -0.210883,-0.318161 -0.210883,-0.509117c0,-0.397645 0.322355,-0.72 0.72,-0.72l6.261766,0l3,-3l0,-1.810051c0,-0.185651 0.07375,-0.363699 0.205026,-0.494974c0.273367,-0.273367 0.716582,-0.273367 0.989949,0l5.11005,5.11005c0.131276,0.131276 0.205026,0.309323 0.205026,0.494975c0,0.386599 -0.313401,0.7 -0.7,0.7l-1.810051,0l-3,3l0,6.261766c0,0.190956 -0.075857,0.374091 -0.210883,0.509117c-0.281177,0.281178 -0.737056,0.281178 -1.018234,0l-3.886872,-3.886873z"/>
   </g>
  </g>
 </g>
</svg>