<svg width="24" height="24" xmlns="http://www.w3.org/2000/svg">
 <!-- Generator: Sketch 50.2 (55047) - http://www.bohemiancoding.com/sketch -->
 <title>logo_twitter_24</title>
 <desc>Created with Sketch.</desc>

 <g>
  <title>background</title>
  <rect fill="none" id="canvas_background" height="402" width="582" y="-1" x="-1"/>
 </g>
 <g>
  <title>Layer 1</title>
  <g fill-rule="evenodd" fill="none" id="Page-2">
   <g id="logo_twitter_24">
    <rect height="24" width="24" y="0" x="0" id="Rectangle-530"/>
    <path fill="#4a76a8" id="Mask" d="m8.2899,20c-2.317222,0 -4.473889,-0.668571 -6.29,-1.814857c0.321111,0.037714 0.647778,0.056571 0.978889,0.056571c1.922222,0 3.691667,-0.645714 5.096111,-1.729143c-1.795556,-0.032571 -3.311111,-1.200571 -3.833333,-2.805142c0.250555,0.047428 0.507777,0.072571 0.772222,0.072571c0.373889,0 0.736667,-0.049143 1.081111,-0.141714c-1.877222,-0.370857 -3.291667,-2.003429 -3.291667,-3.960572c0,-0.017143 0,-0.034285 0.000556,-0.050857c0.553333,0.302286 1.185555,0.484 1.858333,0.505143c-1.101111,-0.724 -1.825555,-1.960571 -1.825555,-3.361714c0,-0.740572 0.202222,-1.434286 0.555555,-2.030857c2.023889,2.443428 5.047222,4.052 8.457778,4.22c-0.07,-0.295429 -0.106667,-0.604 -0.106667,-0.920572c0,-2.230286 1.837223,-4.038857 4.103334,-4.038857c1.180555,0 2.246666,0.490857 2.995,1.275429c0.935,-0.181143 1.813333,-0.517143 2.606111,-0.98c-0.306667,0.942857 -0.957222,1.734857 -1.804445,2.234857c0.83,-0.097715 1.621111,-0.314857 2.356667,-0.636c-0.55,0.809714 -1.245556,1.521143 -2.047222,2.090857c0.007778,0.173143 0.011666,0.347428 0.011666,0.522286c0,5.337714 -4.127222,11.492571 -11.674444,11.492571"/>
   </g>
  </g>
 </g>
</svg>