<svg width="24" height="24" xmlns="http://www.w3.org/2000/svg">
 <!-- Generator: Sketch 50.2 (55047) - http://www.bohemiancoding.com/sketch -->
 <title>logo_vk_24</title>
 <desc>Created with Sketch.</desc>

 <g>
  <title>background</title>
  <rect fill="none" id="canvas_background" height="402" width="582" y="-1" x="-1"/>
 </g>
 <g>
  <title>Layer 1</title>
  <g fill-rule="evenodd" fill="none" id="Page-2">
   <g id="logo_vk_24">
    <rect height="24" width="24" id="Bounds"/>
    <path fill="#4a76a8" id="2x" d="m21.461493,6.726176c0.091493,-0.465362 -0.110014,-0.726176 -0.586554,-0.726176l-2.400482,0c-0.549697,0 -0.751389,0.241996 -0.916224,0.595769c0,0 -1.272272,2.946995 -2.851541,4.717555c-0.506914,0.572435 -0.595889,0.744617 -0.875738,0.744617c-0.225769,0 -0.329856,-0.191188 -0.329856,-0.707546l0,-4.524157c0,-0.633028 -0.072399,-0.826238 -0.586368,-0.826238l-3.821011,0c-0.294778,0 -0.491669,0.16315 -0.491669,0.399501c0,0.596145 0.897889,0.730692 0.897889,2.346005l0,3.332619c0,0.670287 -0.036671,0.930913 -0.348191,0.930913c-0.824546,0 -2.965923,-2.868623 -4.065318,-6.145541c-0.220027,-0.670287 -0.457136,-0.863497 -1.082195,-0.863497l-2.394339,0c-0.348191,0 -0.609896,0.24891 -0.609896,0.602683c0,0.651658 0.751204,3.667951 3.701568,7.708116c1.978948,2.71822 4.749771,4.189201 7.095246,4.189201c1.429436,0 1.704284,-0.252138 1.704284,-0.866725l0,-2.085192c0,-0.521251 0.201506,-0.744805 0.494691,-0.744805c0.329855,0 0.816657,0.117968 2.17701,1.481123c1.612421,1.563941 1.722435,2.215599 2.602173,2.215599l2.693481,0c0.275034,0 0.531547,-0.130407 0.531547,-0.595769c0,-0.614587 -0.78806,-1.712977 -1.997469,-3.016293c-0.49469,-0.670287 -1.301086,-1.396275 -1.5576,-1.731418c-0.366526,-0.391033 -0.256513,-0.614587 0,-1.024061c0,0 2.741528,-4.102968 3.016562,-5.406283z"/>
   </g>
  </g>
 </g>
</svg>