<svg width="28" height="28" xmlns="http://www.w3.org/2000/svg">
 <!-- Generator: Sketch 63.1 (92452) - https://sketch.com -->

 <title>play_rectangle_stack_outline_28</title>
 <desc>Created with Sketch.</desc>
 <g>
  <title>background</title>
  <rect fill="none" id="canvas_background" height="402" width="582" y="-1" x="-1"/>
 </g>
 <g>
  <title>Layer 1</title>
  <g fill-rule="evenodd" fill="none" id="Page-1">
   <g id="play_rectangle_stack_outline_28">
    <rect id="svg_1" height="28" width="28" y="0" x="0"/>
    <path fill-rule="nonzero" fill="#4a76a8" id="↳-Icon-Color" d="m21,7c2.209139,0 4,1.790861 4,4l0,9c0,2.209139 -1.790861,4 -4,4l-14,0c-2.209139,0 -4,-1.790861 -4,-4l0,-9c0,-2.209139 1.790861,-4 4,-4l14,0zm0,2l-14,0c-1.10457,0 -2,0.89543 -2,2l0,9c0,1.10457 0.89543,2 2,2l14,0c1.10457,0 2,-0.89543 2,-2l0,-9c0,-1.10457 -0.89543,-2 -2,-2zm-8.5,3.320377c0.097389,0 0.192657,0.028441 0.274107,0.081831l4.068599,2.66694c0.230948,0.151385 0.295447,0.461328 0.144062,0.692276c-0.040141,0.061238 -0.093242,0.112912 -0.15555,0.151371l-4.068599,2.511277c-0.234985,0.14504 -0.543056,0.072126 -0.688097,-0.162859c-0.048719,-0.078932 -0.074522,-0.169862 -0.074522,-0.262619l0,-5.178217c0,-0.276142 0.223858,-0.5 0.5,-0.5zm5.5,-9.320377c1.054362,0 1.918165,0.815878 1.994514,1.850738l0.005486,0.149262l-12,0c0,-1.10457 0.89543,-2 2,-2l8,0z"/>
   </g>
  </g>
 </g>
</svg>